<svg id="Layer_1" data-name="Layer 1" xmlns="http://www.w3.org/2000/svg" viewBox="0 0 138.7 138.7"><defs><style>.cls-1{fill:#2e612a;}.cls-2{fill:#2b5f2a;}.cls-3{fill:#31642b;}.cls-4{fill:#32662b;}.cls-5{fill:#a7c1a4;}.cls-6{fill:none;stroke:#fff;stroke-miterlimit:10;stroke-width:0.1px;}</style></defs><title>AA</title><path class="cls-1" d="M423.1,307.09" transform="translate(-350.2 -228.95)"/><path class="cls-2" d="M417.48,307.16" transform="translate(-350.2 -228.95)"/><g id="_Group_" data-name="&lt;Group&gt;"><path class="cls-2" d="M481.45,272.24c.05,7,0,14,0,22.55-.58,7.86,1.12,17.34-1.13,26.65-3.09,12.76-18.32,22.78-30.52,20.22-2-.43-2.14-1.64-2.12-3.07s-.62-3.55,1.81-4.11c1.64-.38,3.27-.85,4.93-1.17,14.26-2.8,19.08-8.37,19.35-23.25.23-12.56,0-25.13.09-37.7,0-3-.92-7.21,3.7-7.25S481.42,269.19,481.45,272.24Z" transform="translate(-350.2 -228.95)"/></g><path class="cls-2" d="M443.79,355c-5.09-6.84-9.43-8.54-14.92-2.08,0-3.67.25-7.36-.09-11-.25-2.66,2.09-6.66-3-7.45-.31-.05-.54-.62-.81-.95a7.56,7.56,0,0,1,1.41-2.3c.92-1,1.51-1.07,1.83-1.83a3.57,3.57,0,0,0-.79-3.38c-1.27-1.52-2.84-.93-4-2.25-.81-1-.73-2.17-.66-3.79.16-3.69.14-7.39.25-11.09.16-5.34.16-6.55.16-6.55a16.6,16.6,0,0,1,.18-3.82c.48-2,1.43-3.29,3.2-5.58,2.78-3.62,4.34-4.25,5.08-4.48.49-.15,1.7-.55,2.36.09a2.19,2.19,0,0,1,.64,1.38c.26,2.25,1.86,4.28,3.68,3.32a23.85,23.85,0,0,0,7.34-6.46c1.62-2.09,0-4.44-2-5.41-2.92-1.44-6.16-8.92-9.25-.08a1.71,1.71,0,0,1-2.39.95c-2.95-2.69-6.48-5.17-8.3-8.54-1.47-2.72-1-6.25,3.56-7.79,2.33-.79,1.79-3.66-.27-5.33-5.27-4.24-2.05-6.85,2.1-7.9A156.18,156.18,0,0,1,450.46,249c5.18-.57,8.16,2.26,8.15,7.78-.06,20.11,0,40.22-.17,60.33-.06,6.79-3.52,11.73-10.36,13-3.95.75-4.44,2.7-4.34,6C443.91,341.63,443.79,347.21,443.79,355Z" transform="translate(-350.2 -228.95)"/><path class="cls-1" d="M417.43,336.22c-9.52-2.13-18.49-4-27.36-6.19-6.92-1.74-9.75-7.24-9.85-13.68-.31-19.87-.21-39.74-.14-59.62,0-4.38,2.18-7.77,6.89-7.76a69.59,69.59,0,0,1,24.12,4.37c3.05,1.13,8.13,3.29,2.41,8.09-1.63,1.37-1.31,3.71.73,4.95,4.66,2.84,3.84,4,4,4.76.3,1.76-1.17,3.44-3.89,6.53-.33.38-1,1.06-2.42,2.42-2.28,2.23-2.72,2.53-3.24,2.45s-1.29-.3-2.36-2.72c-1.5-3.37-3.87-3.12-6.16-.58s-8,4.62-3.56,8.86c2,1.94,6,11.65,10.41.94.6-1.48,2-.92,3.42.19,3.14,2.45,5.68,5,6.79,8.46a34.24,34.24,0,0,1,.51,5.51c.1,1.46.22,3.46.21,6.08,0,3.13-.2,3.77-.12,6.94,0,.63,0,1.33,0,2.4,0,2.77-.06,4.17-.69,4.9a4.75,4.75,0,0,1-2.74,1.69c-2.44.64-2.43,3.52-.49,5.33A10.53,10.53,0,0,1,417.43,336.22Z" transform="translate(-350.2 -228.95)"/><path class="cls-3" d="M357.61,293.6c0-7.74,0-15.48,0-23.22,0-2.47.09-5.25,3.37-5.41,3.63-.18,4.14,2.59,4.14,5.46,0,13.06-.06,26.12,0,39.18.12,15.3,4.75,21,19.65,23.6,12.75,2.18,25.09,7,38.3,6.24,1.31-.07,1.74.67,1.69,1.68s-.24,2.26-.79,2.52a8.4,8.4,0,0,1-4.19.85c-14.19-1.41-28.45-2.34-42.5-4.63-11.5-1.87-18.8-11.19-19.44-23.07-.42-7.71-.08-15.47-.08-23.2Z" transform="translate(-350.2 -228.95)"/><path class="cls-4" d="M481.45,272.24c.05,7,0,14,0,22.55s.58,19.13-1.13,26.65a18.17,18.17,0,0,1-1.71,4.66c-.53,1-1.82,3.19-6,6.66-.28.18-1,.74-2,1.46s-2.25,1.6-3.61,2.43a42.69,42.69,0,0,1-8.23,4.09,18,18,0,0,1-5.35,1.12,12.15,12.15,0,0,1-2.59-.19c-1.46-.21-2.21-.33-2.68-.9a3.19,3.19,0,0,1-.47-2.18c0-1.58-.62-3.54,1.81-4.11,1.64-.38,3.27-.85,4.93-1.17,14.26-2.8,19.08-8.37,19.35-23.25.23-12.56,0-25.13.09-37.7,0-3-.92-7.21,3.7-7.25S481.42,269.19,481.45,272.24Z" transform="translate(-350.2 -228.95)"/><path class="cls-5" d="M379.53,328.76c-8.22-4.58-10.75-10.44-10.85-17.19-.23-17-.08-33.93,0-50.9,0-2.88-.15-6.4,4.19-6.11,4.19.28,3.68,3.81,3.69,6.65.05,13.09-.08,26.18.06,39.26C376.7,309.35,375.48,318.33,379.53,328.76Z" transform="translate(-350.2 -228.95)"/><path class="cls-5" d="M460.19,326.93c2.84-4.45,2.67-9.25,2.66-14q0-25.74,0-51.48c0-3.07-.57-7,4.22-6.75,4.38.23,3.32,4.06,3.34,6.74.09,16.44.14,32.87,0,49.31C470.4,319.89,467.72,324.18,460.19,326.93Z" transform="translate(-350.2 -228.95)"/><rect class="cls-6" x="0.05" y="0.05" width="138.6" height="138.6"/></svg>