<svg id="Layer_1" data-name="Layer 1" xmlns="http://www.w3.org/2000/svg" viewBox="0 0 261.98 142.62"><defs><style>.cls-1{fill:#2b6011;}.cls-2{fill:#285e0f;}.cls-3{fill:#2f6316;}.cls-4{fill:#306518;}.cls-5{fill:#a7c0a3;}.cls-6{fill:#35681d;}.cls-7{fill:#2c6113;}.cls-8{fill:#306417;}.cls-9{fill:#2e6315;}.cls-10{fill:#32661a;}.cls-11{fill:#34671c;}</style></defs><title>BB</title><path class="cls-1" d="M413.75,312" transform="translate(-277.24 -253.82)"/><path class="cls-2" d="M408.13,312.1" transform="translate(-277.24 -253.82)"/><g id="_Group_" data-name="&lt;Group&gt;"><path class="cls-2" d="M472.1,277.18c0,7,0,14,0,22.55-.58,7.86,1.12,17.34-1.13,26.65-3.09,12.76-18.32,22.78-30.52,20.22-2-.43-2.14-1.64-2.12-3.07s-.62-3.55,1.81-4.11c1.64-.38,3.27-.85,4.93-1.17,14.26-2.8,19.08-8.37,19.35-23.25.23-12.56,0-25.13.09-37.7,0-3-.92-7.21,3.7-7.25S472.07,274.13,472.1,277.18Z" transform="translate(-277.24 -253.82)"/></g><path class="cls-2" d="M434.44,360c-5.09-6.84-9.43-8.54-14.92-2.08,0-3.67.25-7.36-.09-11-.25-2.66,2.09-6.65-3-7.45-.31-.05-.54-.62-.81-.95a7.56,7.56,0,0,1,1.41-2.3c.92-1,1.51-1.07,1.83-1.83A3.58,3.58,0,0,0,418,331c-1.27-1.52-2.84-.93-4-2.25-.81-1-.74-2.17-.66-3.79.16-3.69.14-7.39.25-11.09.16-5.34.16-6.55.16-6.55a16.65,16.65,0,0,1,.18-3.82c.48-2,1.43-3.29,3.2-5.58,2.78-3.62,4.34-4.25,5.08-4.48.49-.14,1.7-.55,2.36.09a2.19,2.19,0,0,1,.64,1.38c.26,2.25,1.86,4.28,3.68,3.32a24,24,0,0,0,7.34-6.46c1.62-2.09,0-4.44-2-5.41-2.92-1.44-6.16-8.92-9.25-.08a1.71,1.71,0,0,1-2.39,1c-2.95-2.69-6.48-5.17-8.3-8.54-1.47-2.72-1-6.25,3.56-7.79,2.33-.79,1.79-3.66-.27-5.33-5.27-4.24-2.05-6.85,2.1-7.9a156.18,156.18,0,0,1,21.37-3.77c5.18-.57,8.16,2.26,8.15,7.78-.06,20.11,0,40.22-.17,60.33-.06,6.79-3.52,11.73-10.37,13-3.94.75-4.43,2.7-4.33,6C434.56,346.57,434.44,352.15,434.44,360Z" transform="translate(-277.24 -253.82)"/><path class="cls-1" d="M408.08,341.16c-9.52-2.13-18.49-4-27.36-6.19-6.92-1.74-9.75-7.24-9.85-13.68-.31-19.87-.21-39.74-.14-59.62,0-4.38,2.18-7.77,6.89-7.76a69.59,69.59,0,0,1,24.12,4.37c3.05,1.13,8.13,3.29,2.41,8.09-1.63,1.37-1.31,3.71.73,4.95,4.66,2.84,3.84,4,4,4.76.3,1.76-1.18,3.44-3.89,6.53-.33.38-1,1.06-2.42,2.42-2.28,2.23-2.73,2.53-3.24,2.46s-1.29-.31-2.36-2.73c-1.5-3.37-3.87-3.12-6.16-.58s-8,4.62-3.56,8.86c2,1.94,6,11.65,10.41.94.6-1.48,2-.92,3.42.19,3.14,2.45,5.68,5,6.79,8.46a34.24,34.24,0,0,1,.51,5.51c.1,1.46.22,3.46.21,6.08,0,3.13-.2,3.77-.12,6.94,0,.63,0,1.33,0,2.4,0,2.77-.06,4.17-.69,4.9a4.75,4.75,0,0,1-2.74,1.69c-2.44.64-2.43,3.52-.49,5.33A10.53,10.53,0,0,1,408.08,341.16Z" transform="translate(-277.24 -253.82)"/><path class="cls-3" d="M348.26,298.54c0-7.74,0-15.48,0-23.22,0-2.47.09-5.25,3.37-5.41,3.63-.18,4.14,2.59,4.14,5.46,0,13.06-.06,26.12,0,39.18.12,15.3,4.75,21,19.65,23.6,12.75,2.18,25.09,7,38.3,6.24,1.31-.07,1.74.67,1.69,1.68s-.24,2.26-.79,2.52a8.4,8.4,0,0,1-4.19.85C396.28,348,382,347.1,368,344.81c-11.5-1.87-18.8-11.19-19.44-23.07-.42-7.71-.08-15.47-.08-23.2Z" transform="translate(-277.24 -253.82)"/><path class="cls-4" d="M472.1,277.18c0,7,0,14,0,22.55s.58,19.13-1.13,26.65a18.3,18.3,0,0,1-1.71,4.66c-.53,1-1.82,3.19-6,6.66-.28.18-1,.74-2,1.46s-2.25,1.6-3.61,2.43a42.69,42.69,0,0,1-8.23,4.09,18,18,0,0,1-5.35,1.12,12.84,12.84,0,0,1-2.59-.19c-1.46-.21-2.21-.33-2.68-.9a3.19,3.19,0,0,1-.47-2.18c0-1.58-.62-3.55,1.81-4.11,1.64-.38,3.27-.85,4.93-1.17,14.26-2.8,19.08-8.37,19.35-23.25.23-12.56,0-25.13.09-37.7,0-3-.92-7.21,3.7-7.25S472.07,274.13,472.1,277.18Z" transform="translate(-277.24 -253.82)"/><path class="cls-5" d="M370.18,333.7c-8.22-4.58-10.75-10.44-10.85-17.19-.23-17-.08-33.93,0-50.9,0-2.88-.15-6.4,4.19-6.11s3.68,3.81,3.69,6.65c.05,13.09-.08,26.18.06,39.26C367.35,314.29,366.13,323.27,370.18,333.7Z" transform="translate(-277.24 -253.82)"/><path class="cls-5" d="M450.84,331.87c2.84-4.45,2.67-9.25,2.66-14q0-25.74,0-51.48c0-3.07-.57-7,4.22-6.75,4.38.23,3.32,4.06,3.34,6.74.09,16.44.14,32.87,0,49.31C461.05,324.83,458.37,329.12,450.84,331.87Z" transform="translate(-277.24 -253.82)"/><path class="cls-4" d="M358.44,391.18c-3.77-7.43-7.72-15.93-12.37-24-1.59-2.78-4.58-1.2-5.79,1.16-3.82,7.49-7.29,15.15-11,22.7-1.15,2.33-.11,3.64,1.73,4.69,2,1.17,3.31.46,4.76-1.44,5.29-6.9,10.2-6.8,15.91.2,1.23,1.52,2.46,2.37,4.26,1.52C357.43,395.26,359,394.41,358.44,391.18Zm-9.19-7.89c-.41.68-2-.15-5.12-.16-3.59,0-5.46,1.08-6,.27-.33-.48.15-1.34,1.13-3,2-3.5,3.05-5.23,3.65-6.06s.69-.77.95-.75c1.09.11.91,2.08,3.38,6C348.61,381.8,349.61,382.7,349.25,383.29Z" transform="translate(-277.24 -253.82)"/><path class="cls-6" d="M368.4,382c0,3.37.05,6.75,0,10.12-.05,2.58-1.33,4.12-4.07,3.94-2.49-.15-3.19-1.88-3.2-4,0-7.26-.05-14.52,0-21.79,0-1.69.06-3.54,2.08-4.2a4.86,4.86,0,0,1,5.73,2c3.16,4.2,6.3,8.42,11.31,12.43,0-3.13,0-6.26,0-9.38,0-2.4-.3-5.19,3.33-5.24,3.82-.06,4,2.66,4,5.5q0,9.81,0,19.61c0,2-.1,4-2.29,4.85-2.35.88-4.25-.09-5.71-2-3.18-4.14-6.34-8.29-9.52-12.44Z" transform="translate(-277.24 -253.82)"/><path class="cls-7" d="M531.94,383.19V370.08c0-2.53.95-4.25,3.77-4.17s3.53,1.92,3.51,4.41q-.08,10.51,0,21c0,2-.09,4-2.47,4.6a4.59,4.59,0,0,1-5.1-1.88c-3.37-4.4-6.73-8.82-11.43-15,0,5.4-.05,9,0,12.67,0,2.6-1,4.26-3.68,4.3s-3.65-1.73-3.63-4.28c0-7,0-14,0-21,0-1.95-.11-4.05,2.32-4.7s4.19.41,5.61,2.34C524.11,372.78,527.4,377.13,531.94,383.19Z" transform="translate(-277.24 -253.82)"/><path class="cls-8" d="M495.54,396.44c-8.41.07-15-6.58-15-15.21,0-8.87,6.19-15.5,14.61-15.58a14.86,14.86,0,0,1,15,15.19C510.19,389.6,503.85,396.37,495.54,396.44ZM503,381c-.44-4.33-2.46-7.72-7.43-7.88s-7.49,2.9-7.6,7.73,2.25,8,7.19,8.2S502.38,385.94,503,381Z" transform="translate(-277.24 -253.82)"/><path class="cls-4" d="M416.91,386.07c-.07,7.46-3.4,10.43-11.49,10.32a14.36,14.36,0,0,1-13.76-9c-2.66-5.95-2.15-11.84,2.41-16.92,4.35-4.86,9.92-6,15.91-4.31,2.48.7,6.44,1.44,5.28,5.49-1.12,3.87-3.94,3-7,1.75a7.35,7.35,0,0,0-9.14,2.44,7.86,7.86,0,0,0-.45,8.91,7.57,7.57,0,0,0,7.09,4.28c1.77,0,3.5-.19,3.72-2.49.17-1.84-.9-2.6-2.6-2.68-2.45-.11-3.49-1.38-3.07-3.79.39-2.21,2.18-2.2,3.89-2.42C415.4,376.62,417,378,416.91,386.07Z" transform="translate(-277.24 -253.82)"/><path class="cls-9" d="M431.72,365.88c2.91,0,5.81-.09,8.71,0,2.53.11,3.09,1.88,3,4.05s-1.09,3.13-3.14,3.15c-3.15,0-6.29,0-9.43.09-1.58.05-3.69-.45-3.47,2.31.16,2.12,1.88,1.77,3.24,1.83s2.91.07,4.36,0c2.67-.1,4.09,1,4,3.82-.11,2.37-1.42,3.07-3.64,3.59-2.65.62-7.86-2.35-7.51,2.09.31,4.09,5.66,1.15,8.67,1.93,2.66.69,7.06-1.58,6.92,3.72-.14,5-4.32,3.55-7.15,3.6-16.29.28-16.3.23-16.29-15.75,0-1,0-1.94,0-2.9C420,364.44,419,365.91,431.72,365.88Z" transform="translate(-277.24 -253.82)"/><path class="cls-7" d="M300.48,369.9c.36,3.43-2.12,3.19-4.28,3.24-2.91.07-5.82,0-8.72,0-1.52,0-3,.14-2.8,2.28.11,1.62,1.21,1.86,2.47,1.89s2.42,0,3.63,0c2.69,0,5.66-.37,5.49,3.76a3.7,3.7,0,0,1-.89,2.54c-1,1-2.55.91-4.91.81-1-.05-1.76,0-3.23,0-.91,0-1.4,0-1.8.38a2.53,2.53,0,0,0-.56,2,2.78,2.78,0,0,0,.62,1.63c.75.81,1.93.56,4.69.47,1.7-.06.83.05,3.55,0,4.14-.08,4.89-.31,5.68.36a4,4,0,0,1,1,3.19,4.15,4.15,0,0,1-1.52,2.82,4.54,4.54,0,0,1-2.6.69,45.81,45.81,0,0,1-5.68,0c-1.89-.07-3.32,0-4.88.07-.93.05-2.58,0-5.87-.09a2.82,2.82,0,0,1-2.19-.69,2.79,2.79,0,0,1-.38-2c.07-1.48-.13-3,0-4.44,0-.1,0-2.17,0-6.32,0-11.79-.41-14.94,1.45-16a15.58,15.58,0,0,1,3.34-.21c2.8-.06,3.16.11,5.54.09a56.6,56.6,0,0,0,6.43-.35c1.12-.13,2.25-.05,3.38-.09a3,3,0,0,1,1.69.23,2.87,2.87,0,0,1,1.29,1.74Z" transform="translate(-277.24 -253.82)"/><path class="cls-4" d="M330.7,366.18c-2.81-1.25-3.95.63-4.92,2.72-2.37,5.13-4.72,10.26-7.72,16.8-2.08-4.46-3.78-7.34-4.79-10.44-1.94-6-4.54-10.46-11.15-8a9.48,9.48,0,0,0,.65,2.75c.68.66.77,2,1.19,2.81,3.3,6.44,6.28,13.06,9.69,19.44,2.79,5.22,6,5.2,8.78,0,3.53-6.6,6.69-13.39,10-20.08C333.75,369.53,333.57,367.45,330.7,366.18Z" transform="translate(-277.24 -253.82)"/><path class="cls-10" d="M446.17,380.41c0-3.14,0-6.28,0-9.42,0-2.59.27-5,3.62-5.11s3.77,2.21,3.74,4.83c0,5.87,0,8,0,8-.11,2.21,0,4.42-.15,6.63-.09,1.78-.17,2.74.5,3.53s2,1,4.18,1.13,2.92-.21,5.61,0c2.21.14,3,.47,3.55,1.11a2.76,2.76,0,0,1,.56,1.82c0,2.46-1.63,3.26-3.84,3.28-.48,0-1,0-1.45,0C442.52,396,446.61,398.39,446.17,380.41Z" transform="translate(-277.24 -253.82)"/><path class="cls-11" d="M470.52,381.12c0-3.62,0-7.24,0-10.85,0-2.34.39-4.4,3.43-4.41,2.75,0,3.92,1.5,3.92,4.08q0,11.21,0,22.42a3.38,3.38,0,0,1-3.53,3.72c-2.76.12-3.8-1.55-3.79-4.11C470.54,388.35,470.53,384.73,470.52,381.12Z" transform="translate(-277.24 -253.82)"/><path class="cls-10" d="M456.91,387.81" transform="translate(-277.24 -253.82)"/></svg>